<svg width="206" height="271" viewBox="0 0 206 271" fill="none" xmlns="http://www.w3.org/2000/svg">
<path fill-rule="evenodd" clip-rule="evenodd" d="M102.828 194.639L200 97.467L173.688 71.1548L102.785 142.057L73.1589 112.431L46.8467 138.744L102.742 194.639L102.785 194.597L102.828 194.639Z" fill="white"/>
<path fill-rule="evenodd" clip-rule="evenodd" d="M158.817 55.8956L102.921 0L76.609 26.3122L76.6533 26.3566L59.9973 43.0126V31.7019H36.1182V66.8917L5.79199 97.2179L32.1042 123.53L102.966 52.6688L132.505 82.2079L158.817 55.8956Z" fill="#F8E3C4"/>
<path d="M6.24121 223.406V236.132H3.93848V225.638H3.86816L0.897461 227.537V225.445L4.04395 223.406H6.24121ZM22.0439 221.824V233.302H20.0752V221.824H22.0439ZM22.4834 235.798V237.38H11.5322V232.142H13.501V235.798H22.4834ZM13.3779 222.861C15.7861 222.861 17.6494 224.531 17.6494 226.833C17.6494 229.189 15.7861 230.824 13.3779 230.824C10.9521 230.824 9.08887 229.189 9.08887 226.833C9.08887 224.531 10.9521 222.861 13.3779 222.861ZM13.3779 224.566C12.0244 224.566 10.9873 225.462 11.0049 226.833C10.9873 228.24 12.0244 229.119 13.3779 229.119C14.6963 229.119 15.7334 228.24 15.7334 226.833C15.7334 225.462 14.6963 224.566 13.3779 224.566ZM41.0811 221.806V228.011H43.4365V229.646H41.0811V237.662H39.1299V221.806H41.0811ZM36.8799 223.458C36.8799 228.134 34.9463 232.23 29.6553 234.832L28.5479 233.32C32.415 231.395 34.5068 228.688 34.9111 225.076H29.4092V223.458H36.8799ZM56.9014 222.773V224.197C56.9014 225.682 56.9014 227.308 56.4795 229.558H58.6768V231.14H52.3662V237.714H50.3975V231.14H44.1924V229.558H54.4932C54.9326 227.396 54.9502 225.779 54.9502 224.355H45.8975V222.773H56.9014ZM72.4932 222.791V229.4H64.8291V222.791H72.4932ZM66.7627 224.337V227.871H70.5596V224.337H66.7627ZM77.2217 221.806V230.859H75.2881V221.806H77.2217ZM77.5557 231.791V233.267H73.0205C73.2051 234.498 75.1123 235.851 78.1533 236.15L77.4854 237.644C74.9102 237.38 72.959 236.361 72.001 235.042C71.0078 236.378 69.0391 237.363 66.4463 237.644L65.7783 236.15C68.8193 235.886 70.7705 234.533 70.9463 233.267H66.4287V231.791H70.999V230.402H72.9678V231.791H77.5557ZM98.333 230.068V231.615H83.8135V230.068H90.0889V228.89H85.6768V222.228H96.5928V223.74H87.6279V224.83H96.2061V226.271H87.6279V227.396H96.7158V228.89H92.04V230.068H98.333ZM91.0732 232.494C94.5713 232.494 96.5576 233.425 96.5752 235.078C96.5576 236.783 94.5713 237.679 91.0732 237.679C87.5225 237.679 85.5361 236.783 85.5361 235.078C85.5361 233.425 87.5225 232.494 91.0732 232.494ZM91.0732 233.953C88.6826 233.953 87.4873 234.322 87.4873 235.078C87.4873 235.851 88.6826 236.22 91.0732 236.22C93.4287 236.22 94.6064 235.851 94.624 235.078C94.6064 234.322 93.4287 233.953 91.0732 233.953ZM111.938 221.806V225.726H114.153V227.343H111.938V231.087H109.987V221.806H111.938ZM103.606 231.72V233.091H109.987V231.72H111.938V237.503H101.673V231.72H103.606ZM103.606 235.957H109.987V234.603H103.606V235.957ZM108.845 223.283V224.847H99.4229V223.283H103.167V221.683H105.118V223.283H108.845ZM104.134 225.392C106.437 225.392 108.001 226.5 108.019 228.187C108.001 229.875 106.437 230.982 104.134 230.982C101.813 230.982 100.231 229.875 100.231 228.187C100.231 226.5 101.813 225.392 104.134 225.392ZM104.134 226.833C102.921 226.833 102.13 227.343 102.13 228.187C102.13 229.048 102.921 229.541 104.134 229.541C105.347 229.541 106.155 229.048 106.155 228.187C106.155 227.343 105.347 226.833 104.134 226.833ZM133.718 230.666V232.248H127.407V237.679H125.474V232.248H119.233V230.666H133.718ZM132.382 222.703V224.25H127.618C127.732 225.99 129.824 227.66 132.962 228.064L132.259 229.593C129.552 229.215 127.442 227.976 126.476 226.253C125.509 227.976 123.399 229.215 120.728 229.593L119.989 228.064C123.109 227.66 125.201 225.99 125.351 224.25H120.569V222.703H132.382ZM148.097 221.806V237.697H146.146V229.611H142.788V228.011H146.146V221.806H148.097ZM142.858 223.494C142.841 228.187 141.171 232.125 135.704 234.832L134.685 233.302C138.798 231.29 140.564 228.6 140.89 225.041H135.423V223.494H142.858ZM162.704 223.353V233.759H155.181V223.353H162.704ZM157.097 224.882V232.195H160.753V224.882H157.097ZM167.063 221.806V227.906H169.507V229.558H167.063V237.697H165.112V221.806H167.063ZM178.384 223.986C178.384 226.447 180.792 228.908 184.114 229.488L183.235 231.123C180.572 230.56 178.393 228.952 177.364 226.816C176.31 228.934 174.13 230.551 171.476 231.123L170.614 229.488C173.901 228.89 176.292 226.429 176.31 223.986V222.808H178.384V223.986ZM184.694 234.058V235.675H170.175V234.058H184.694ZM199.056 221.806V237.714H197.122V229.136H194.134V227.554H197.122V221.806H199.056ZM193.888 223.177V224.777H188.421V227.625H193.255V229.171H188.421V232.441C190.838 232.432 192.648 232.353 194.696 232.019L194.89 233.601C192.569 233.953 190.548 234.041 187.7 234.058H186.452V223.177H193.888ZM204.558 223.406L204.364 232.388H202.378L202.167 223.406H204.558ZM203.38 236.273C202.624 236.273 202.009 235.658 202.009 234.902C202.009 234.164 202.624 233.548 203.38 233.548C204.101 233.548 204.733 234.164 204.733 234.902C204.733 235.658 204.101 236.273 203.38 236.273ZM83.251 259.88V264.644H71.9834V259.88H83.251ZM74.4619 261.761V262.781H80.79V261.761H74.4619ZM84.2705 249.773V251.671H70.9814V249.773H76.3604V248.578H78.9092V249.773H84.2705ZM77.6436 252.005C81.1943 252.005 83.1279 252.779 83.1279 254.308C83.1279 255.644 81.6514 256.417 78.9092 256.576V257.244H85.0088V259.195H70.2959V257.244H76.3604V256.576C73.6533 256.409 72.1592 255.644 72.1592 254.308C72.1592 252.779 74.1279 252.005 77.6436 252.005ZM77.6436 253.693C75.71 253.693 74.8662 253.833 74.8662 254.308C74.8662 254.765 75.71 254.923 77.6436 254.941C79.6123 254.923 80.4033 254.765 80.4209 254.308C80.4033 253.833 79.6123 253.693 77.6436 253.693ZM98.1924 250.195V260.935H90.335V250.195H98.1924ZM92.8311 252.164V258.931H95.6787V252.164H92.8311ZM102.675 248.683V254.66H104.96V256.751H102.675V264.82H100.144V248.683H102.675ZM114.065 250.722C114.048 252.972 115.806 255.521 119.726 256.171L118.618 258.263C115.735 257.718 113.749 256.189 112.712 254.203C111.666 256.171 109.671 257.709 106.806 258.263L105.733 256.171C109.565 255.503 111.341 252.937 111.358 250.722V249.597H114.065V250.722ZM120.183 260.83V262.904H105.435V260.83H120.183ZM134.667 248.683V264.855H132.171V256.277H129.517V254.255H132.171V248.683H134.667ZM129.271 250.001V252.041H124.261V254.484H128.726V256.453H124.261V259.212C126.291 259.204 128.031 259.125 129.938 258.843L130.185 260.847C127.829 261.199 125.667 261.269 123.03 261.287H121.729V250.001H129.271Z" fill="white"/>
</svg>
